<svg height="399pt" viewBox="-14 0 399 399.33029" width="399pt" xmlns="http://www.w3.org/2000/svg"><path d="m258.164062 77.292969-109.988281 27.128906v35.351563l109.988281-27.128907zm0 0"/><path d="m113.171875 236.113281c-12.6875 0-23.007813 8.132813-23.007813 18.128907 0 9.992187 10.320313 18.125 23.007813 18.125 12.683594 0 23.003906-8.132813 23.003906-18.125 0-9.996094-10.320312-18.128907-23.003906-18.128907zm0 0"/><path d="m258.164062 202.191406c0-10.007812-10.300781-18.125-23.003906-18.125-12.707031 0-23.007812 8.117188-23.007812 18.125 0 10.011719 10.300781 18.128906 23.007812 18.128906 12.703125 0 23.003906-8.117187 23.003906-18.128906zm0 0"/><path d="m332.15625 260.171875c-29.308594-15.796875-65.558594-10.074219-88.578125 13.980469-23.019531 24.054687-27.144531 60.519531-10.078125 89.105468 17.066406 28.585938 51.121094 42.261719 83.21875 33.410157 32.097656-8.851563 54.332031-38.042969 54.335938-71.339844-.007813-27.214844-14.945313-52.234375-38.898438-65.15625zm6.855469 81.691406-37.710938 37.703125c-.136719.140625-.285156.273438-.441406.398438-.019531.019531-.046875.035156-.070313.054687-.128906.101563-.261718.199219-.402343.300781-.027344.019532-.058594.035157-.089844.054688-.132813.085938-.269531.171875-.414063.246094-.019531.011718-.042968.023437-.0625.03125-.152343.082031-.308593.15625-.464843.222656l-.050781.015625c-.164063.066406-.332032.128906-.5.179687l-.050782.015626c-.167968.050781-.339844.09375-.515625.128906-.046875.007812-.09375.011718-.140625.019531-.144531.027344-.292968.050781-.441406.066406-.398438.042969-.800781.042969-1.199219 0-.15625-.015625-.308593-.039062-.457031-.066406-.042969-.007813-.082031-.011719-.125-.019531-.179688-.035156-.359375-.082032-.535156-.136719l-.03125-.007813c-.175782-.050781-.351563-.117187-.519532-.183593l-.03125-.011719c-.164062-.070312-.324218-.144531-.480468-.226562l-.050782-.027344c-.144531-.078125-.289062-.164063-.425781-.253906-.027343-.015626-.054687-.03125-.078125-.046876-.140625-.09375-.273437-.191406-.402344-.300781-.019531-.015625-.046874-.035156-.070312-.050781-.152344-.128906-.300781-.261719-.441406-.402344l-37.707032-37.703125c-2.3125-2.347656-2.296874-6.121093.03125-8.449219 2.332032-2.328124 6.105469-2.34375 8.453126-.035156l27.46875 27.472656v-85.523437c0-3.3125 2.6875-6 6-6s6 2.6875 6 6v85.515625l27.46875-27.46875c2.34375-2.34375 6.144531-2.34375 8.488281.003906 2.34375 2.34375 2.34375 6.144532 0 8.484375zm0 0"/><path d="m297.054688 239.328125c12.121093.007813 24.101562 2.566406 35.164062 7.515625 10.578125-22.824219 16.019531-47.6875 15.945312-72.84375 0-95.945312-78.054687-174-174-174-95.941406 0-174 78.054688-174 174s78.054688 174 174 174c13.074219.003906 26.105469-1.460938 38.847657-4.363281-5.515625-25.425781.765625-51.984375 17.085937-72.242188 16.324219-20.261719 40.941406-32.046875 66.957032-32.066406zm-96.898438-37.136719c0-16.609375 15.699219-30.125 35.003906-30.125 8.273438-.070312 16.34375 2.542969 23.007813 7.449219v-54.511719l-109.988281 27.128906v102.109376c0 16.609374-15.699219 30.125-35.007813 30.125-19.304687 0-35.003906-13.515626-35.003906-30.125 0-16.613282 15.699219-30.128907 35.003906-30.128907 8.273437-.066406 16.34375 2.546875 23.007813 7.449219v-131.839844c0-2.761718 1.882812-5.164062 4.5625-5.824218l121.988281-30.089844c1.789062-.441406 3.683593-.035156 5.136719 1.101562 1.453124 1.136719 2.300781 2.878906 2.300781 4.722656v132.558594c0 16.613282-15.699219 30.128906-35.007813 30.128906-19.304687 0-35.007812-13.515624-35.007812-30.128906zm0 0"/></svg>